<svg xmlns="http://www.w3.org/2000/svg" xmlns:xlink="http://www.w3.org/1999/xlink" width="32" zoomAndPan="magnify"
    viewBox="0 0 375 374.999991" height="32" preserveAspectRatio="xMidYMid meet" version="1.0">
    <defs>
        <clipPath id="8e20cdfde2">
            <path d="M 33 295 L 342 295 L 342 323.472656 L 33 323.472656 Z M 33 295 " clip-rule="nonzero" />
        </clipPath>
        <clipPath id="d30d59a82f">
            <path d="M 30 20 L 345.484375 20 L 345.484375 153 L 30 153 Z M 30 20 " clip-rule="nonzero" />
        </clipPath>
    </defs>
    <path fill="#540000"
        d="M 85.109375 285.53125 C 88.511719 285.53125 91.28125 282.789062 91.28125 279.398438 L 91.28125 173.660156 C 91.28125 170.289062 88.515625 167.527344 85.109375 167.527344 L 61.5625 167.527344 C 58.136719 167.527344 55.390625 170.289062 55.390625 173.660156 L 55.390625 279.398438 C 55.390625 282.789062 58.136719 285.53125 61.5625 285.53125 Z M 85.109375 285.53125 "
        fill-opacity="1" fill-rule="nonzero" />
    <g clip-path="url(#8e20cdfde2)">
        <path fill="#540000"
            d="M 335.542969 295.824219 L 39.867188 295.824219 C 36.503906 295.824219 33.71875 298.574219 33.71875 301.96875 L 33.71875 317.90625 C 33.71875 321.308594 36.503906 324.050781 39.867188 324.050781 L 335.542969 324.050781 C 338.949219 324.050781 341.675781 321.3125 341.675781 317.90625 L 341.675781 301.96875 C 341.679688 298.574219 338.949219 295.824219 335.542969 295.824219 Z M 335.542969 295.824219 "
            fill-opacity="1" fill-rule="nonzero" />
    </g>
    <path fill="#540000"
        d="M 161.394531 285.53125 C 164.765625 285.53125 167.527344 282.789062 167.527344 279.398438 L 167.527344 173.660156 C 167.527344 170.289062 164.765625 167.527344 161.394531 167.527344 L 137.789062 167.527344 C 134.421875 167.527344 131.679688 170.289062 131.679688 173.660156 L 131.679688 279.398438 C 131.679688 282.789062 134.421875 285.53125 137.789062 285.53125 Z M 161.394531 285.53125 "
        fill-opacity="1" fill-rule="nonzero" />
    <path fill="#540000"
        d="M 313.886719 285.53125 C 317.257812 285.53125 320.039062 282.789062 320.039062 279.398438 L 320.039062 173.660156 C 320.039062 170.289062 317.257812 167.527344 313.886719 167.527344 L 290.277344 167.527344 C 286.898438 167.527344 284.152344 170.289062 284.152344 173.660156 L 284.152344 279.398438 C 284.152344 282.789062 286.898438 285.53125 290.277344 285.53125 Z M 313.886719 285.53125 "
        fill-opacity="1" fill-rule="nonzero" />
    <g clip-path="url(#d30d59a82f)">
        <path fill="#540000"
            d="M 337.402344 132.960938 L 211.367188 28.644531 C 198.34375 17.890625 177.066406 17.890625 164.042969 28.644531 L 38.035156 132.960938 C 24.988281 143.765625 28.1875 152.550781 45.09375 152.550781 L 330.355469 152.550781 C 347.242188 152.550781 350.421875 143.765625 337.402344 132.960938 Z M 187.707031 127.171875 C 174.488281 127.171875 163.777344 116.4375 163.777344 103.226562 C 163.777344 90.011719 174.488281 79.316406 187.707031 79.316406 C 200.957031 79.316406 211.636719 90.011719 211.636719 103.226562 C 211.636719 116.4375 200.957031 127.171875 187.707031 127.171875 Z M 187.707031 127.171875 "
            fill-opacity="1" fill-rule="nonzero" />
    </g>
    <path fill="#540000"
        d="M 237.625 285.53125 C 241.027344 285.53125 243.773438 282.789062 243.773438 279.398438 L 243.773438 173.660156 C 243.773438 170.289062 241.027344 167.527344 237.625 167.527344 L 214.058594 167.527344 C 210.644531 167.527344 207.898438 170.289062 207.898438 173.660156 L 207.898438 279.398438 C 207.898438 282.789062 210.644531 285.53125 214.058594 285.53125 Z M 237.625 285.53125 "
        fill-opacity="1" fill-rule="nonzero" />
</svg>