<svg xmlns="http://www.w3.org/2000/svg" xmlns:xlink="http://www.w3.org/1999/xlink" width="150" zoomAndPan="magnify"
    viewBox="0 0 150 44.999999" height="60" preserveAspectRatio="xMidYMid meet" version="1.0">
    <defs>
        <g />
    </defs>
    <g fill="#540000" fill-opacity="1">
        <g transform="translate(1.684471, 30.828572)">
            <g>
                <path
                    d="M 14.207031 -8.304688 C 16.804688 -9.304688 17.933594 -11.53125 17.933594 -14.128906 L 17.933594 -14.15625 C 17.933594 -17.433594 16.03125 -20.28125 10.679688 -20.28125 L 1.277344 -20.28125 L 1.277344 0 L 5.953125 0 L 5.953125 -7.726562 L 9.679688 -7.726562 L 13.980469 0 L 18.90625 0 Z M 10.429688 -15.929688 C 12.105469 -15.929688 13.179688 -15.304688 13.179688 -13.605469 L 13.179688 -13.582031 C 13.179688 -11.828125 12.105469 -11.179688 10.429688 -11.179688 L 5.953125 -11.179688 L 5.953125 -15.929688 Z M 10.429688 -15.929688 " />
            </g>
        </g>
    </g>
    <g fill="#540000" fill-opacity="1">
        <g transform="translate(20.81164, 30.828572)">
            <g>
                <path
                    d="M 16.355469 -6.703125 C 16.355469 -12.105469 13.40625 -15.179688 8.726562 -15.179688 C 4 -15.179688 0.976562 -12.003906 0.976562 -7.429688 L 0.976562 -7.378906 C 0.976562 -2.75 4.203125 0.398438 9.203125 0.398438 C 12.128906 0.398438 14.15625 -0.476562 15.707031 -1.402344 L 13.65625 -5.027344 C 12.605469 -4.300781 11.078125 -3.675781 9.378906 -3.675781 C 7.554688 -3.675781 6.277344 -4.875 5.851562 -6.453125 L 16.355469 -6.453125 Z M 8.679688 -11.480469 C 10.277344 -11.480469 11.328125 -10.453125 11.605469 -9.003906 L 5.851562 -9.003906 C 6.226562 -10.402344 7.226562 -11.480469 8.679688 -11.480469 Z M 8.679688 -11.480469 " />
            </g>
        </g>
    </g>
    <g fill="#540000" fill-opacity="1">
        <g transform="translate(38.138602, 30.828572)">
            <g>
                <path
                    d="M 9.378906 -15.207031 C 4.25 -15.207031 0.976562 -12.730469 0.976562 -8.128906 L 0.976562 -8.078125 C 0.976562 -3.453125 4.050781 -0.824219 9.203125 -0.824219 C 9.980469 -0.824219 10.730469 -0.898438 11.40625 -1.027344 L 11.40625 -0.523438 C 11.40625 1.050781 10.753906 1.675781 8.578125 1.675781 C 7.277344 1.675781 4.851562 1.425781 3.375 0.851562 L 4.453125 5.101562 C 5.300781 5.425781 7.378906 5.800781 9.230469 5.800781 C 12.828125 5.800781 16.105469 4.402344 16.105469 -0.0742188 L 16.105469 -13.628906 C 14.480469 -14.40625 12.078125 -15.207031 9.378906 -15.207031 Z M 5.703125 -8.054688 C 5.703125 -10.179688 7.050781 -11.003906 9.378906 -11.003906 C 10.054688 -11.003906 10.753906 -10.929688 11.40625 -10.703125 L 11.40625 -5.253906 C 10.703125 -5.101562 10.003906 -5.027344 9.402344 -5.027344 C 7.027344 -5.027344 5.703125 -5.902344 5.703125 -8.027344 Z M 5.703125 -8.054688 " />
            </g>
        </g>
    </g>
    <g fill="#540000" fill-opacity="1">
        <g transform="translate(55.51557, 30.828572)">
            <g>
                <path
                    d="M 10.828125 -5.300781 L 10.828125 -9.378906 L 0.976562 -9.378906 L 0.976562 -5.300781 Z M 10.828125 -5.300781 " />
            </g>
        </g>
    </g>
    <g fill="#540000" fill-opacity="1">
        <g transform="translate(67.316906, 30.828572)">
            <g>
                <path
                    d="M 14.207031 -8.304688 C 16.804688 -9.304688 17.933594 -11.53125 17.933594 -14.128906 L 17.933594 -14.15625 C 17.933594 -17.433594 16.03125 -20.28125 10.679688 -20.28125 L 1.277344 -20.28125 L 1.277344 0 L 5.953125 0 L 5.953125 -7.726562 L 9.679688 -7.726562 L 13.980469 0 L 18.90625 0 Z M 10.429688 -15.929688 C 12.105469 -15.929688 13.179688 -15.304688 13.179688 -13.605469 L 13.179688 -13.582031 C 13.179688 -11.828125 12.105469 -11.179688 10.429688 -11.179688 L 5.953125 -11.179688 L 5.953125 -15.929688 Z M 10.429688 -15.929688 " />
            </g>
        </g>
    </g>
    <g fill="#540000" fill-opacity="1">
        <g transform="translate(86.444075, 30.828572)">
            <g>
                <path
                    d="M 9.179688 0.425781 C 14.03125 0.425781 17.382812 -2.875 17.382812 -7.402344 L 17.382812 -7.429688 C 17.382812 -11.953125 14.054688 -15.207031 9.179688 -15.207031 C 4.300781 -15.207031 0.976562 -11.953125 0.976562 -7.429688 L 0.976562 -7.402344 C 0.976562 -2.875 4.328125 0.425781 9.179688 0.425781 Z M 9.179688 -3.777344 C 7.078125 -3.777344 5.703125 -5.351562 5.703125 -7.429688 L 5.703125 -7.453125 C 5.703125 -9.503906 7.027344 -11.003906 9.179688 -11.003906 C 11.328125 -11.003906 12.65625 -9.503906 12.65625 -7.453125 L 12.65625 -7.429688 C 12.65625 -5.351562 11.28125 -3.777344 9.179688 -3.777344 Z M 9.179688 -3.777344 " />
            </g>
        </g>
    </g>
    <g fill="#540000" fill-opacity="1">
        <g transform="translate(104.796156, 30.828572)">
            <g>
                <path
                    d="M 9.179688 0.425781 C 14.03125 0.425781 17.382812 -2.875 17.382812 -7.402344 L 17.382812 -7.429688 C 17.382812 -11.953125 14.054688 -15.207031 9.179688 -15.207031 C 4.300781 -15.207031 0.976562 -11.953125 0.976562 -7.429688 L 0.976562 -7.402344 C 0.976562 -2.875 4.328125 0.425781 9.179688 0.425781 Z M 9.179688 -3.777344 C 7.078125 -3.777344 5.703125 -5.351562 5.703125 -7.429688 L 5.703125 -7.453125 C 5.703125 -9.503906 7.027344 -11.003906 9.179688 -11.003906 C 11.328125 -11.003906 12.65625 -9.503906 12.65625 -7.453125 L 12.65625 -7.429688 C 12.65625 -5.351562 11.28125 -3.777344 9.179688 -3.777344 Z M 9.179688 -3.777344 " />
            </g>
        </g>
    </g>
    <g fill="#540000" fill-opacity="1">
        <g transform="translate(123.148237, 30.828572)">
            <g>
                <path
                    d="M 5.976562 0 L 5.976562 -10.828125 C 6.652344 -10.980469 7.253906 -11.054688 7.753906 -11.054688 C 9.027344 -11.054688 9.828125 -10.480469 9.828125 -8.953125 L 9.828125 0 L 14.53125 0 L 14.53125 -8.953125 C 14.53125 -10.230469 14.878906 -11.054688 16.480469 -11.054688 C 18.082031 -11.054688 18.433594 -10.230469 18.433594 -8.953125 L 18.433594 0 L 23.132812 0 L 23.132812 -9.503906 C 23.132812 -13.878906 20.65625 -15.230469 16.90625 -15.230469 C 15.03125 -15.230469 13.304688 -14.78125 12.15625 -13.582031 C 11.179688 -14.804688 9.628906 -15.230469 7.929688 -15.230469 C 6.601562 -15.230469 3.75 -14.90625 1.277344 -14.457031 L 1.277344 0 Z M 5.976562 0 " />
            </g>
        </g>
    </g>
    <g fill="#f7941d" fill-opacity="1">
        <g transform="translate(90.288666, 39.735604)">
            <g>
                <path
                    d="M 2.375 -3.90625 L 2.859375 -3.90625 C 3.328125 -3.90625 3.671875 -3.984375 3.890625 -4.140625 C 4.117188 -4.296875 4.234375 -4.546875 4.234375 -4.890625 C 4.234375 -5.222656 4.117188 -5.457031 3.890625 -5.59375 C 3.660156 -5.738281 3.304688 -5.8125 2.828125 -5.8125 L 2.375 -5.8125 Z M 2.375 -2.703125 L 2.375 0 L 0.890625 0 L 0.890625 -7.03125 L 2.9375 -7.03125 C 3.882812 -7.03125 4.585938 -6.851562 5.046875 -6.5 C 5.503906 -6.15625 5.734375 -5.628906 5.734375 -4.921875 C 5.734375 -4.503906 5.617188 -4.132812 5.390625 -3.8125 C 5.171875 -3.488281 4.851562 -3.238281 4.4375 -3.0625 C 5.488281 -1.476562 6.175781 -0.457031 6.5 0 L 4.84375 0 L 3.171875 -2.703125 Z M 2.375 -2.703125 " />
            </g>
        </g>
    </g>
    <g fill="#f7941d" fill-opacity="1">
        <g transform="translate(96.775837, 39.735604)">
            <g>
                <path
                    d="M 3 -4.4375 C 2.6875 -4.4375 2.441406 -4.335938 2.265625 -4.140625 C 2.085938 -3.941406 1.988281 -3.660156 1.96875 -3.296875 L 4.015625 -3.296875 C 4.015625 -3.660156 3.921875 -3.941406 3.734375 -4.140625 C 3.546875 -4.335938 3.300781 -4.4375 3 -4.4375 Z M 3.203125 0.09375 C 2.335938 0.09375 1.660156 -0.144531 1.171875 -0.625 C 0.679688 -1.101562 0.4375 -1.773438 0.4375 -2.640625 C 0.4375 -3.546875 0.660156 -4.242188 1.109375 -4.734375 C 1.566406 -5.222656 2.191406 -5.46875 2.984375 -5.46875 C 3.742188 -5.46875 4.332031 -5.25 4.75 -4.8125 C 5.175781 -4.382812 5.390625 -3.789062 5.390625 -3.03125 L 5.390625 -2.328125 L 1.921875 -2.328125 C 1.941406 -1.910156 2.066406 -1.582031 2.296875 -1.34375 C 2.523438 -1.113281 2.847656 -1 3.265625 -1 C 3.585938 -1 3.894531 -1.03125 4.1875 -1.09375 C 4.476562 -1.164062 4.78125 -1.273438 5.09375 -1.421875 L 5.09375 -0.28125 C 4.832031 -0.15625 4.554688 -0.0625 4.265625 0 C 3.972656 0.0625 3.617188 0.09375 3.203125 0.09375 Z M 3.203125 0.09375 " />
            </g>
        </g>
    </g>
    <g fill="#f7941d" fill-opacity="1">
        <g transform="translate(102.581663, 39.735604)">
            <g>
                <path
                    d="M 5.453125 -5.375 L 5.453125 -4.625 L 4.609375 -4.40625 C 4.753906 -4.164062 4.828125 -3.898438 4.828125 -3.609375 C 4.828125 -3.023438 4.625 -2.570312 4.21875 -2.25 C 3.820312 -1.9375 3.269531 -1.78125 2.5625 -1.78125 L 2.296875 -1.78125 L 2.078125 -1.8125 C 1.921875 -1.695312 1.84375 -1.566406 1.84375 -1.421875 C 1.84375 -1.210938 2.113281 -1.109375 2.65625 -1.109375 L 3.578125 -1.109375 C 4.160156 -1.109375 4.609375 -0.976562 4.921875 -0.71875 C 5.234375 -0.46875 5.390625 -0.0976562 5.390625 0.390625 C 5.390625 1.015625 5.125 1.5 4.59375 1.84375 C 4.070312 2.1875 3.320312 2.359375 2.34375 2.359375 C 1.59375 2.359375 1.019531 2.226562 0.625 1.96875 C 0.226562 1.707031 0.03125 1.34375 0.03125 0.875 C 0.03125 0.550781 0.128906 0.28125 0.328125 0.0625 C 0.535156 -0.15625 0.832031 -0.3125 1.21875 -0.40625 C 1.070312 -0.46875 0.941406 -0.570312 0.828125 -0.71875 C 0.710938 -0.863281 0.65625 -1.019531 0.65625 -1.1875 C 0.65625 -1.382812 0.710938 -1.550781 0.828125 -1.6875 C 0.953125 -1.832031 1.125 -1.96875 1.34375 -2.09375 C 1.0625 -2.21875 0.835938 -2.410156 0.671875 -2.671875 C 0.515625 -2.941406 0.4375 -3.265625 0.4375 -3.640625 C 0.4375 -4.222656 0.625 -4.671875 1 -4.984375 C 1.382812 -5.304688 1.929688 -5.46875 2.640625 -5.46875 C 2.785156 -5.46875 2.960938 -5.453125 3.171875 -5.421875 C 3.378906 -5.398438 3.515625 -5.382812 3.578125 -5.375 Z M 1.296875 0.765625 C 1.296875 0.960938 1.390625 1.117188 1.578125 1.234375 C 1.773438 1.347656 2.050781 1.40625 2.40625 1.40625 C 2.925781 1.40625 3.332031 1.332031 3.625 1.1875 C 3.925781 1.039062 4.078125 0.84375 4.078125 0.59375 C 4.078125 0.394531 3.988281 0.253906 3.8125 0.171875 C 3.644531 0.0976562 3.375 0.0625 3 0.0625 L 2.25 0.0625 C 1.976562 0.0625 1.75 0.125 1.5625 0.25 C 1.382812 0.382812 1.296875 0.554688 1.296875 0.765625 Z M 1.828125 -3.609375 C 1.828125 -3.316406 1.894531 -3.085938 2.03125 -2.921875 C 2.164062 -2.753906 2.367188 -2.671875 2.640625 -2.671875 C 2.910156 -2.671875 3.109375 -2.753906 3.234375 -2.921875 C 3.367188 -3.085938 3.4375 -3.316406 3.4375 -3.609375 C 3.4375 -4.253906 3.171875 -4.578125 2.640625 -4.578125 C 2.097656 -4.578125 1.828125 -4.253906 1.828125 -3.609375 Z M 1.828125 -3.609375 " />
            </g>
        </g>
    </g>
    <g fill="#f7941d" fill-opacity="1">
        <g transform="translate(108.133185, 39.735604)">
            <g>
                <path
                    d="M 0.296875 -2.03125 L 0.296875 -3.234375 L 2.875 -3.234375 L 2.875 -2.03125 Z M 0.296875 -2.03125 " />
            </g>
        </g>
    </g>
    <g fill="#f7941d" fill-opacity="1">
        <g transform="translate(111.295201, 39.735604)">
            <g>
                <path
                    d="M 0.890625 -7.03125 L 3.078125 -7.03125 C 4.066406 -7.03125 4.785156 -6.882812 5.234375 -6.59375 C 5.691406 -6.3125 5.921875 -5.863281 5.921875 -5.25 C 5.921875 -4.832031 5.820312 -4.488281 5.625 -4.21875 C 5.425781 -3.945312 5.160156 -3.785156 4.828125 -3.734375 L 4.828125 -3.6875 C 5.273438 -3.582031 5.597656 -3.394531 5.796875 -3.125 C 5.992188 -2.851562 6.09375 -2.488281 6.09375 -2.03125 C 6.09375 -1.394531 5.859375 -0.894531 5.390625 -0.53125 C 4.929688 -0.175781 4.304688 0 3.515625 0 L 0.890625 0 Z M 2.375 -4.25 L 3.234375 -4.25 C 3.640625 -4.25 3.929688 -4.3125 4.109375 -4.4375 C 4.296875 -4.5625 4.390625 -4.765625 4.390625 -5.046875 C 4.390625 -5.316406 4.289062 -5.507812 4.09375 -5.625 C 3.894531 -5.75 3.582031 -5.8125 3.15625 -5.8125 L 2.375 -5.8125 Z M 2.375 -3.0625 L 2.375 -1.234375 L 3.34375 -1.234375 C 3.75 -1.234375 4.050781 -1.3125 4.25 -1.46875 C 4.445312 -1.625 4.546875 -1.863281 4.546875 -2.1875 C 4.546875 -2.769531 4.128906 -3.0625 3.296875 -3.0625 Z M 2.375 -3.0625 " />
            </g>
        </g>
    </g>
    <g fill="#f7941d" fill-opacity="1">
        <g transform="translate(117.897529, 39.735604)">
            <g>
                <path
                    d="M 1.9375 -2.703125 C 1.9375 -2.171875 2.023438 -1.765625 2.203125 -1.484375 C 2.378906 -1.210938 2.660156 -1.078125 3.046875 -1.078125 C 3.441406 -1.078125 3.722656 -1.210938 3.890625 -1.484375 C 4.066406 -1.753906 4.15625 -2.160156 4.15625 -2.703125 C 4.15625 -3.234375 4.066406 -3.628906 3.890625 -3.890625 C 3.722656 -4.160156 3.441406 -4.296875 3.046875 -4.296875 C 2.648438 -4.296875 2.363281 -4.160156 2.1875 -3.890625 C 2.019531 -3.628906 1.9375 -3.234375 1.9375 -2.703125 Z M 5.65625 -2.703125 C 5.65625 -1.828125 5.421875 -1.140625 4.953125 -0.640625 C 4.492188 -0.148438 3.851562 0.09375 3.03125 0.09375 C 2.519531 0.09375 2.066406 -0.015625 1.671875 -0.234375 C 1.273438 -0.460938 0.96875 -0.785156 0.75 -1.203125 C 0.539062 -1.628906 0.4375 -2.128906 0.4375 -2.703125 C 0.4375 -3.578125 0.664062 -4.253906 1.125 -4.734375 C 1.582031 -5.222656 2.226562 -5.46875 3.0625 -5.46875 C 3.570312 -5.46875 4.023438 -5.351562 4.421875 -5.125 C 4.816406 -4.90625 5.117188 -4.585938 5.328125 -4.171875 C 5.546875 -3.753906 5.65625 -3.265625 5.65625 -2.703125 Z M 5.65625 -2.703125 " />
            </g>
        </g>
    </g>
    <g fill="#f7941d" fill-opacity="1">
        <g transform="translate(123.981651, 39.735604)">
            <g>
                <path
                    d="M 1.9375 -2.703125 C 1.9375 -2.171875 2.023438 -1.765625 2.203125 -1.484375 C 2.378906 -1.210938 2.660156 -1.078125 3.046875 -1.078125 C 3.441406 -1.078125 3.722656 -1.210938 3.890625 -1.484375 C 4.066406 -1.753906 4.15625 -2.160156 4.15625 -2.703125 C 4.15625 -3.234375 4.066406 -3.628906 3.890625 -3.890625 C 3.722656 -4.160156 3.441406 -4.296875 3.046875 -4.296875 C 2.648438 -4.296875 2.363281 -4.160156 2.1875 -3.890625 C 2.019531 -3.628906 1.9375 -3.234375 1.9375 -2.703125 Z M 5.65625 -2.703125 C 5.65625 -1.828125 5.421875 -1.140625 4.953125 -0.640625 C 4.492188 -0.148438 3.851562 0.09375 3.03125 0.09375 C 2.519531 0.09375 2.066406 -0.015625 1.671875 -0.234375 C 1.273438 -0.460938 0.96875 -0.785156 0.75 -1.203125 C 0.539062 -1.628906 0.4375 -2.128906 0.4375 -2.703125 C 0.4375 -3.578125 0.664062 -4.253906 1.125 -4.734375 C 1.582031 -5.222656 2.226562 -5.46875 3.0625 -5.46875 C 3.570312 -5.46875 4.023438 -5.351562 4.421875 -5.125 C 4.816406 -4.90625 5.117188 -4.585938 5.328125 -4.171875 C 5.546875 -3.753906 5.65625 -3.265625 5.65625 -2.703125 Z M 5.65625 -2.703125 " />
            </g>
        </g>
    </g>
    <g fill="#f7941d" fill-opacity="1">
        <g transform="translate(130.065773, 39.735604)">
            <g>
                <path
                    d="M 2.171875 -2.921875 L 2.8125 -3.734375 L 4.328125 -5.375 L 5.96875 -5.375 L 3.84375 -3.046875 L 6.109375 0 L 4.40625 0 L 2.859375 -2.171875 L 2.234375 -1.671875 L 2.234375 0 L 0.765625 0 L 0.765625 -7.484375 L 2.234375 -7.484375 L 2.234375 -4.140625 L 2.15625 -2.921875 Z M 2.171875 -2.921875 " />
            </g>
        </g>
    </g>
</svg>